<svg xmlns="http://www.w3.org/2000/svg" viewBox="0 0 283.97 51.84"><linearGradient id="SVGID_1_" gradientUnits="userSpaceOnUse" y1="21.755" x2="40.029" y2="21.755"><stop offset="0" stop-color="#8272b4"/><stop offset="1" stop-color="#634ea0"/></linearGradient><path d="M40.03 26.22C30.52 13.21 16.36 3.7 0 .35v25.48c9.15 3.09 16.86 9.28 21.89 17.33a66.417 66.417 0 0 0 18.14-16.94z" fill="url(#SVGID_1_)"/><path d="M51.49.35c-1.91 9.52-5.93 18.31-11.46 25.87C30.52 13.21 16.36 3.7 0 .35h51.49zm-29.6 42.81A40.87 40.87 0 0 1 26 51.84h25.48c-1.93-9.43-5.98-18.12-11.46-25.62a66.235 66.235 0 0 1-18.13 16.94" fill="#ffd400"/><linearGradient id="SVGID_2_" gradientUnits="userSpaceOnUse" x1="3.13" y1="37.235" x2="13.182" y2="50.22"><stop offset="0" stop-color="#4f3795"/><stop offset="1" stop-color="#6a57a5"/></linearGradient><path d="M0 51.84c7.67-1.65 15.47-4.62 21.89-8.68A41.612 41.612 0 0 0 0 25.83v26.01z" fill="url(#SVGID_2_)"/><path d="M96.66 24.44c0 .89-.68 1.75-1.78 1.75-.43 0-1.03-.21-1.53-.75l-12.46-12.6h-.07v11.34c0 1.68-1.18 2-1.75 2-.61 0-1.78-.32-1.78-2V2.35c0-1.68 1.18-2 1.78-2 .57 0 1.75.32 1.75 2v9.42h.07L92.74 1.03c.57-.5 1.07-.68 1.46-.68.96 0 1.68.68 1.68 1.57 0 .39-.11.96-.75 1.5L84.85 12.2l11.1 10.7c.61.61.71 1.07.71 1.54zm28.84-4.75h-12.49l-2.18 5.17c-.46 1.11-1.21 1.32-1.71 1.32-.96 0-1.82-.64-1.82-1.71 0-.29.07-.61.29-1.07l9.49-21.26c.68-1.57 1.57-1.78 2.28-1.78.71 0 1.57.21 2.28 1.78l9.38 21.19c.21.5.25.82.25 1.07 0 1.11-.86 1.78-1.82 1.78-.57 0-1.32-.25-1.78-1.36l-2.17-5.13zm-11.17-3.1h9.88l-4.92-11.74-4.96 11.74zm33.65-10.28h-.07v17.87c0 1.68-1.18 2-1.75 2-.61 0-1.78-.32-1.78-2V3c0-2.21 1.5-2.64 2.25-2.64.82 0 1.57.32 2.64 1.82l12.91 17.91h.07V2.35c0-1.68 1.18-2 1.78-2 .57 0 1.75.32 1.75 2v21.19c0 2.21-1.5 2.64-2.25 2.64-.86 0-1.57-.32-2.64-1.82L147.98 6.31zm45.32 20.23c-7.67 0-13.34-5.53-13.34-13.31C179.96 5.35 185.63 0 193.3 0c7.71 0 13.41 5.35 13.41 13.24 0 7.77-5.71 13.3-13.41 13.3zm0-23.44c-5.82 0-9.53 4.6-9.53 10.13 0 5.64 3.75 10.13 9.53 10.13 5.85 0 9.56-4.5 9.56-10.13 0-5.52-3.67-10.13-9.56-10.13zm51.88 23.09c-.57 0-1.78-.29-1.78-1.96V7.78h-.07l-7.38 16.8c-.57 1.36-1.46 1.61-2.1 1.61-.64 0-1.53-.25-2.14-1.61L224.4 7.85h-.11v16.41c0 1.64-1.14 1.93-1.71 1.93-.57 0-1.71-.29-1.71-1.93V2.78c0-2.03 1.46-2.43 2.21-2.43.71 0 1.68.25 2.46 2.03l8.38 19.26h.07l8.35-19.26c.79-1.78 1.75-2.03 2.43-2.03.75 0 2.18.39 2.18 2.43v21.44c-.02 1.68-1.2 1.97-1.77 1.97zm33.01-6.5H265.7l-2.18 5.17c-.46 1.11-1.21 1.32-1.71 1.32-.96 0-1.82-.64-1.82-1.71 0-.29.07-.61.29-1.07l9.49-21.26c.68-1.57 1.57-1.78 2.28-1.78.71 0 1.57.21 2.28 1.78l9.38 21.19c.21.5.25.82.25 1.07 0 1.11-.86 1.78-1.82 1.78-.57 0-1.32-.25-1.78-1.36l-2.17-5.13zm-11.17-3.1h9.88l-4.92-11.74-4.96 11.74z" fill="#472f92"/><path d="M86.51 39.11c.75 0 .86.53.86.77 0 .23-.11.75-.86.75h-3.26v10.05c0 .82-.58.98-.88.98-.28 0-.86-.16-.86-.98V40.63h-3.26c-.75 0-.86-.53-.86-.75 0-.24.1-.77.86-.77h8.26zM97.03 46h-1.86v4.68c0 .82-.58.98-.86.98-.3 0-.88-.16-.88-.98V40.14c0-.7.33-1.03 1.04-1.03h2.95c2.4 0 4.42.91 4.42 3.44 0 1.82-1.23 2.98-3 3.28l2.91 4.39c.16.25.19.44.19.6 0 .49-.35.86-.88.86-.25 0-.54-.1-.77-.47L97.03 46zm-1.86-1.46h2c1.63 0 2.91-.51 2.91-2s-1.28-1.96-2.79-1.96h-2.12v3.96zm15.32 6.14c0 .82-.58.98-.86.98-.3 0-.88-.16-.88-.98V39.95c0-.82.58-.98.88-.98.28 0 .86.16.86.98v10.73zm8.6.85c-.7 0-1.04-.33-1.04-1.04V40.14c0-.7.33-1.03 1.04-1.03h3.25c1.88 0 3.89.77 3.89 3.14 0 1.37-.88 2.35-2.17 2.7v.03c1.6.19 2.75 1.28 2.75 3.02 0 2.39-2.07 3.53-4.67 3.53h-3.05zm.7-7.18h2.26c1.33 0 2.44-.58 2.44-1.93 0-1.33-1.07-1.86-2.72-1.86h-1.98v3.79zm0 5.7h2.17c1.47 0 3.09-.46 3.09-2.14 0-1.46-1.03-2.09-2.93-2.09h-2.33v4.23zm21.9-10.1c0-.82.58-.98.86-.98.3 0 .88.16.88.98v6.98c0 2.54-1.54 4.91-4.82 4.91-3.26 0-4.82-2.37-4.82-4.91v-6.98c0-.82.58-.98.88-.98.28 0 .86.16.86.98v6.88c0 1.7.77 3.46 3.09 3.46s3.09-1.75 3.09-3.46v-6.88zm25.61 8.52h-6.14l-1.07 2.54c-.23.54-.6.65-.84.65-.47 0-.89-.32-.89-.84 0-.14.04-.3.14-.53l4.67-10.46c.33-.77.77-.88 1.12-.88.35 0 .77.11 1.12.88l4.61 10.42c.1.24.12.4.12.53 0 .54-.42.88-.89.88-.28 0-.65-.12-.88-.67l-1.07-2.52zm-5.49-1.52h4.86l-2.42-5.77-2.44 5.77zm25.09 3.07c0 .6-.23.88-.86 1.12-1.19.46-2.4.7-3.81.7-3.88 0-6.63-2.72-6.63-6.54 0-3.88 2.84-6.51 6.61-6.51 1.63 0 2.95.42 3.88 1.14.33.26.42.51.42.72 0 .47-.33.82-.79.82-.17 0-.4-.05-.67-.25-.72-.53-1.67-.91-2.82-.91-2.91 0-4.74 2.26-4.74 4.98 0 2.77 1.82 4.98 4.79 4.98 1.16 0 2.18-.23 2.89-.61V46.2h-2.07c-.7 0-.82-.51-.82-.75 0-.23.12-.72.82-.72h2.77c.68 0 1.02.32 1.02 1v4.29zm9.24.66c0 .82-.58.98-.86.98-.3 0-.88-.16-.88-.98V39.95c0-.82.58-.98.88-.98.28 0 .86.16.86.98v10.73zm7.56-10.73c0-.82.58-.98.88-.98.28 0 .86.16.86.98v10.03h4.82c.74 0 .86.53.86.77s-.12.77-.86.77h-5.53c-.7 0-1.04-.33-1.04-1.04V39.95zm15.25 5.89v4.14h5.79c.74 0 .84.53.84.77s-.1.77-.84.77h-6.49c-.7 0-1.04-.33-1.04-1.04V40.14c0-.7.33-1.03 1.04-1.03h6.21c.75 0 .86.53.86.77 0 .23-.1.75-.86.75h-5.51v3.72h5.16c.74 0 .84.51.84.74s-.1.75-.84.75h-5.16z" fill="#9283be"/></svg>
